<?xml version="1.0" standalone="no"?>
<svg xmlns="http://www.w3.org/2000/svg" width="512" height="512" viewBox="0 0 512 512"><defs><clipPath id="clip-path-dot-color"><path d="M 38 158v 15h 15v -7.5a 7.5 7.5, 0, 0, 0, -7.5 -7.5" transform="rotate(-90,45.5,165.5)"/><rect x="38" y="173" width="15" height="15" transform="rotate(0,45.5,180.5)"/><rect x="38" y="188" width="15" height="15" transform="rotate(0,45.5,195.5)"/><rect x="38" y="203" width="15" height="15" transform="rotate(0,45.5,210.5)"/><path d="M 38 218v 15h 7.5a 7.5 7.5, 0, 0, 0, 0 -15" transform="rotate(90,45.5,225.5)"/><circle cx="45.5" cy="270.5" r="7.5" transform="rotate(0,45.5,270.5)"/><circle cx="45.5" cy="300.5" r="7.5" transform="rotate(0,45.5,300.5)"/><circle cx="45.5" cy="345.5" r="7.5" transform="rotate(0,45.5,345.5)"/><path d="M 53 158v 15h 7.5a 7.5 7.5, 0, 0, 0, 0 -15" transform="rotate(0,60.5,165.5)"/><rect x="53" y="203" width="15" height="15" transform="rotate(0,60.5,210.5)"/><path d="M 68 188v 15h 15v -7.5a 7.5 7.5, 0, 0, 0, -7.5 -7.5" transform="rotate(-90,75.5,195.5)"/><path d="M 68 203v 15h 15v -7.5a 7.5 7.5, 0, 0, 0, -7.5 -7.5" transform="rotate(90,75.5,210.5)"/><path d="M 68 233v 15h 7.5a 7.5 7.5, 0, 0, 0, 0 -15" transform="rotate(-90,75.5,240.5)"/><rect x="68" y="248" width="15" height="15" transform="rotate(0,75.5,255.5)"/><path d="M 68 263v 15h 7.5a 7.5 7.5, 0, 0, 0, 0 -15" transform="rotate(90,75.5,270.5)"/><path d="M 68 308v 15h 15v -7.5a 7.5 7.5, 0, 0, 0, -7.5 -7.5" transform="rotate(-90,75.5,315.5)"/><rect x="68" y="323" width="15" height="15" transform="rotate(0,75.5,330.5)"/><path d="M 68 338v 15h 7.5a 7.5 7.5, 0, 0, 0, 0 -15" transform="rotate(90,75.5,345.5)"/><path d="M 83 188v 15h 7.5a 7.5 7.5, 0, 0, 0, 0 -15" transform="rotate(0,90.5,195.5)"/><path d="M 83 293v 15h 15v -7.5a 7.5 7.5, 0, 0, 0, -7.5 -7.5" transform="rotate(-90,90.5,300.5)"/><path d="M 83 308v 15h 15v -7.5a 7.5 7.5, 0, 0, 0, -7.5 -7.5" transform="rotate(90,90.5,315.5)"/><path d="M 98 203v 15h 15v -7.5a 7.5 7.5, 0, 0, 0, -7.5 -7.5" transform="rotate(-90,105.5,210.5)"/><path d="M 98 218v 15h 15v -7.5a 7.5 7.5, 0, 0, 0, -7.5 -7.5" transform="rotate(180,105.5,225.5)"/><path d="M 98 263v 15h 15v -7.5a 7.5 7.5, 0, 0, 0, -7.5 -7.5" transform="rotate(-90,105.5,270.5)"/><rect x="98" y="278" width="15" height="15" transform="rotate(0,105.5,285.5)"/><path d="M 98 293v 15h 15v -7.5a 7.5 7.5, 0, 0, 0, -7.5 -7.5" transform="rotate(90,105.5,300.5)"/><circle cx="105.5" cy="330.5" r="7.5" transform="rotate(0,105.5,330.5)"/><path d="M 113 173v 15h 7.5a 7.5 7.5, 0, 0, 0, 0 -15" transform="rotate(-90,120.5,180.5)"/><rect x="113" y="188" width="15" height="15" transform="rotate(0,120.5,195.5)"/><rect x="113" y="203" width="15" height="15" transform="rotate(0,120.5,210.5)"/><rect x="113" y="218" width="15" height="15" transform="rotate(0,120.5,225.5)"/><rect x="113" y="233" width="15" height="15" transform="rotate(0,120.5,240.5)"/><rect x="113" y="248" width="15" height="15" transform="rotate(0,120.5,255.5)"/><rect x="113" y="263" width="15" height="15" transform="rotate(0,120.5,270.5)"/><rect x="113" y="278" width="15" height="15" transform="rotate(0,120.5,285.5)"/><path d="M 113 308v 15h 7.5a 7.5 7.5, 0, 0, 0, 0 -15" transform="rotate(180,120.5,315.5)"/><circle cx="135.5" cy="165.5" r="7.5" transform="rotate(0,135.5,165.5)"/><path d="M 128 188v 15h 7.5a 7.5 7.5, 0, 0, 0, 0 -15" transform="rotate(0,135.5,195.5)"/><path d="M 128 218v 15h 7.5a 7.5 7.5, 0, 0, 0, 0 -15" transform="rotate(0,135.5,225.5)"/><path d="M 128 248v 15h 7.5a 7.5 7.5, 0, 0, 0, 0 -15" transform="rotate(0,135.5,255.5)"/><path d="M 128 278v 15h 7.5a 7.5 7.5, 0, 0, 0, 0 -15" transform="rotate(0,135.5,285.5)"/><rect x="128" y="308" width="15" height="15" transform="rotate(0,135.5,315.5)"/><circle cx="135.5" cy="345.5" r="7.5" transform="rotate(0,135.5,345.5)"/><path d="M 143 173v 15h 7.5a 7.5 7.5, 0, 0, 0, 0 -15" transform="rotate(180,150.5,180.5)"/><rect x="143" y="308" width="15" height="15" transform="rotate(0,150.5,315.5)"/><path d="M 143 323v 15h 15v -7.5a 7.5 7.5, 0, 0, 0, -7.5 -7.5" transform="rotate(180,150.5,330.5)"/><path d="M 158 53v 15h 7.5a 7.5 7.5, 0, 0, 0, 0 -15" transform="rotate(180,165.5,60.5)"/><path d="M 158 128v 15h 7.5a 7.5 7.5, 0, 0, 0, 0 -15" transform="rotate(-90,165.5,135.5)"/><rect x="158" y="143" width="15" height="15" transform="rotate(0,165.5,150.5)"/><rect x="158" y="158" width="15" height="15" transform="rotate(0,165.5,165.5)"/><rect x="158" y="173" width="15" height="15" transform="rotate(0,165.5,180.5)"/><path d="M 158 203v 15h 7.5a 7.5 7.5, 0, 0, 0, 0 -15" transform="rotate(180,165.5,210.5)"/><path d="M 158 293v 15h 7.5a 7.5 7.5, 0, 0, 0, 0 -15" transform="rotate(-90,165.5,300.5)"/><rect x="158" y="308" width="15" height="15" transform="rotate(0,165.5,315.5)"/><rect x="158" y="323" width="15" height="15" transform="rotate(0,165.5,330.5)"/><rect x="158" y="338" width="15" height="15" transform="rotate(0,165.5,345.5)"/><path d="M 158 353v 15h 7.5a 7.5 7.5, 0, 0, 0, 0 -15" transform="rotate(90,165.5,360.5)"/><path d="M 158 443v 15h 15v -7.5a 7.5 7.5, 0, 0, 0, -7.5 -7.5" transform="rotate(-90,165.5,450.5)"/><path d="M 158 458v 15h 7.5a 7.5 7.5, 0, 0, 0, 0 -15" transform="rotate(90,165.5,465.5)"/><path d="M 173 38v 15h 15v -7.5a 7.5 7.5, 0, 0, 0, -7.5 -7.5" transform="rotate(-90,180.5,45.5)"/><path d="M 173 53v 15h 15v -7.5a 7.5 7.5, 0, 0, 0, -7.5 -7.5" transform="rotate(90,180.5,60.5)"/><path d="M 173 83v 15h 7.5a 7.5 7.5, 0, 0, 0, 0 -15" transform="rotate(180,180.5,90.5)"/><path d="M 173 113v 15h 7.5a 7.5 7.5, 0, 0, 0, 0 -15" transform="rotate(180,180.5,120.5)"/><path d="M 173 173v 15h 15v -7.5a 7.5 7.5, 0, 0, 0, -7.5 -7.5" transform="rotate(0,180.5,180.5)"/><rect x="173" y="188" width="15" height="15" transform="rotate(0,180.5,195.5)"/><rect x="173" y="203" width="15" height="15" transform="rotate(0,180.5,210.5)"/><path d="M 173 323v 15h 15v -7.5a 7.5 7.5, 0, 0, 0, -7.5 -7.5" transform="rotate(0,180.5,330.5)"/><rect x="173" y="338" width="15" height="15" transform="rotate(0,180.5,345.5)"/><path d="M 173 383v 15h 15v -7.5a 7.5 7.5, 0, 0, 0, -7.5 -7.5" transform="rotate(-90,180.5,390.5)"/><path d="M 173 398v 15h 7.5a 7.5 7.5, 0, 0, 0, 0 -15" transform="rotate(90,180.5,405.5)"/><rect x="173" y="443" width="15" height="15" transform="rotate(0,180.5,450.5)"/><path d="M 188 38v 15h 7.5a 7.5 7.5, 0, 0, 0, 0 -15" transform="rotate(0,195.5,45.5)"/><path d="M 188 68v 15h 7.5a 7.5 7.5, 0, 0, 0, 0 -15" transform="rotate(-90,195.5,75.5)"/><path d="M 188 83v 15h 15v -7.5a 7.5 7.5, 0, 0, 0, -7.5 -7.5" transform="rotate(90,195.5,90.5)"/><path d="M 188 113v 15h 15v -7.5a 7.5 7.5, 0, 0, 0, -7.5 -7.5" transform="rotate(0,195.5,120.5)"/><rect x="188" y="128" width="15" height="15" transform="rotate(0,195.5,135.5)"/><path d="M 188 143v 15h 7.5a 7.5 7.5, 0, 0, 0, 0 -15" transform="rotate(90,195.5,150.5)"/><path d="M 188 203v 15h 7.5a 7.5 7.5, 0, 0, 0, 0 -15" transform="rotate(0,195.5,210.5)"/><path d="M 188 293v 15h 7.5a 7.5 7.5, 0, 0, 0, 0 -15" transform="rotate(-90,195.5,300.5)"/><path d="M 188 308v 15h 15v -7.5a 7.5 7.5, 0, 0, 0, -7.5 -7.5" transform="rotate(180,195.5,315.5)"/><rect x="188" y="338" width="15" height="15" transform="rotate(0,195.5,345.5)"/><rect x="188" y="383" width="15" height="15" transform="rotate(0,195.5,390.5)"/><path d="M 188 428v 15h 7.5a 7.5 7.5, 0, 0, 0, 0 -15" transform="rotate(-90,195.5,435.5)"/><rect x="188" y="443" width="15" height="15" transform="rotate(0,195.5,450.5)"/><circle cx="210.5" cy="60.5" r="7.5" transform="rotate(0,210.5,60.5)"/><circle cx="210.5" cy="195.5" r="7.5" transform="rotate(0,210.5,195.5)"/><rect x="203" y="308" width="15" height="15" transform="rotate(0,210.5,315.5)"/><rect x="203" y="338" width="15" height="15" transform="rotate(0,210.5,345.5)"/><path d="M 203 383v 15h 15v -7.5a 7.5 7.5, 0, 0, 0, -7.5 -7.5" transform="rotate(0,210.5,390.5)"/><rect x="203" y="398" width="15" height="15" transform="rotate(0,210.5,405.5)"/><path d="M 203 413v 15h 15v -7.5a 7.5 7.5, 0, 0, 0, -7.5 -7.5" transform="rotate(180,210.5,420.5)"/><path d="M 203 443v 15h 7.5a 7.5 7.5, 0, 0, 0, 0 -15" transform="rotate(0,210.5,450.5)"/><circle cx="225.5" cy="45.5" r="7.5" transform="rotate(0,225.5,45.5)"/><circle cx="225.5" cy="75.5" r="7.5" transform="rotate(0,225.5,75.5)"/><circle cx="225.5" cy="105.5" r="7.5" transform="rotate(0,225.5,105.5)"/><path d="M 218 128v 15h 7.5a 7.5 7.5, 0, 0, 0, 0 -15" transform="rotate(-90,225.5,135.5)"/><path d="M 218 143v 15h 7.5a 7.5 7.5, 0, 0, 0, 0 -15" transform="rotate(90,225.5,150.5)"/><path d="M 218 203v 15h 7.5a 7.5 7.5, 0, 0, 0, 0 -15" transform="rotate(180,225.5,210.5)"/><path d="M 218 308v 15h 15v -7.5a 7.5 7.5, 0, 0, 0, -7.5 -7.5" transform="rotate(0,225.5,315.5)"/><rect x="218" y="323" width="15" height="15" transform="rotate(0,225.5,330.5)"/><rect x="218" y="338" width="15" height="15" transform="rotate(0,225.5,345.5)"/><rect x="218" y="353" width="15" height="15" transform="rotate(0,225.5,360.5)"/><path d="M 218 368v 15h 15v -7.5a 7.5 7.5, 0, 0, 0, -7.5 -7.5" transform="rotate(180,225.5,375.5)"/><rect x="218" y="413" width="15" height="15" transform="rotate(0,225.5,420.5)"/><path d="M 218 458v 15h 7.5a 7.5 7.5, 0, 0, 0, 0 -15" transform="rotate(180,225.5,465.5)"/><circle cx="240.5" cy="60.5" r="7.5" transform="rotate(0,240.5,60.5)"/><circle cx="240.5" cy="120.5" r="7.5" transform="rotate(0,240.5,120.5)"/><path d="M 233 158v 15h 7.5a 7.5 7.5, 0, 0, 0, 0 -15" transform="rotate(180,240.5,165.5)"/><path d="M 233 188v 15h 7.5a 7.5 7.5, 0, 0, 0, 0 -15" transform="rotate(-90,240.5,195.5)"/><path d="M 233 203v 15h 15v -7.5a 7.5 7.5, 0, 0, 0, -7.5 -7.5" transform="rotate(90,240.5,210.5)"/><rect x="233" y="353" width="15" height="15" transform="rotate(0,240.5,360.5)"/><rect x="233" y="368" width="15" height="15" transform="rotate(0,240.5,375.5)"/><path d="M 233 398v 15h 7.5a 7.5 7.5, 0, 0, 0, 0 -15" transform="rotate(-90,240.5,405.5)"/><path d="M 233 413v 15h 15v -7.5a 7.5 7.5, 0, 0, 0, -7.5 -7.5" transform="rotate(90,240.5,420.5)"/><path d="M 233 458v 15h 7.5a 7.5 7.5, 0, 0, 0, 0 -15" transform="rotate(0,240.5,465.5)"/><circle cx="255.5" cy="45.5" r="7.5" transform="rotate(0,255.5,45.5)"/><path d="M 248 98v 15h 7.5a 7.5 7.5, 0, 0, 0, 0 -15" transform="rotate(180,255.5,105.5)"/><path d="M 248 128v 15h 7.5a 7.5 7.5, 0, 0, 0, 0 -15" transform="rotate(-90,255.5,135.5)"/><rect x="248" y="143" width="15" height="15" transform="rotate(0,255.5,150.5)"/><rect x="248" y="158" width="15" height="15" transform="rotate(0,255.5,165.5)"/><path d="M 248 338v 15h 15v -7.5a 7.5 7.5, 0, 0, 0, -7.5 -7.5" transform="rotate(-90,255.5,345.5)"/><rect x="248" y="353" width="15" height="15" transform="rotate(0,255.5,360.5)"/><path d="M 248 368v 15h 15v -7.5a 7.5 7.5, 0, 0, 0, -7.5 -7.5" transform="rotate(90,255.5,375.5)"/><path d="M 263 53v 15h 7.5a 7.5 7.5, 0, 0, 0, 0 -15" transform="rotate(180,270.5,60.5)"/><path d="M 263 83v 15h 7.5a 7.5 7.5, 0, 0, 0, 0 -15" transform="rotate(-90,270.5,90.5)"/><rect x="263" y="98" width="15" height="15" transform="rotate(0,270.5,105.5)"/><path d="M 263 113v 15h 15v -7.5a 7.5 7.5, 0, 0, 0, -7.5 -7.5" transform="rotate(180,270.5,120.5)"/><rect x="263" y="158" width="15" height="15" transform="rotate(0,270.5,165.5)"/><rect x="263" y="173" width="15" height="15" transform="rotate(0,270.5,180.5)"/><rect x="263" y="188" width="15" height="15" transform="rotate(0,270.5,195.5)"/><path d="M 263 203v 15h 7.5a 7.5 7.5, 0, 0, 0, 0 -15" transform="rotate(90,270.5,210.5)"/><rect x="263" y="338" width="15" height="15" transform="rotate(0,270.5,345.5)"/><path d="M 263 383v 15h 7.5a 7.5 7.5, 0, 0, 0, 0 -15" transform="rotate(-90,270.5,390.5)"/><path d="M 263 398v 15h 7.5a 7.5 7.5, 0, 0, 0, 0 -15" transform="rotate(90,270.5,405.5)"/><path d="M 263 428v 15h 7.5a 7.5 7.5, 0, 0, 0, 0 -15" transform="rotate(180,270.5,435.5)"/><path d="M 263 458v 15h 7.5a 7.5 7.5, 0, 0, 0, 0 -15" transform="rotate(180,270.5,465.5)"/><path d="M 278 53v 15h 15v -7.5a 7.5 7.5, 0, 0, 0, -7.5 -7.5" transform="rotate(0,285.5,60.5)"/><path d="M 278 68v 15h 15v -7.5a 7.5 7.5, 0, 0, 0, -7.5 -7.5" transform="rotate(180,285.5,75.5)"/><rect x="278" y="113" width="15" height="15" transform="rotate(0,285.5,120.5)"/><path d="M 278 128v 15h 7.5a 7.5 7.5, 0, 0, 0, 0 -15" transform="rotate(90,285.5,135.5)"/><path d="M 278 158v 15h 7.5a 7.5 7.5, 0, 0, 0, 0 -15" transform="rotate(0,285.5,165.5)"/><rect x="278" y="188" width="15" height="15" transform="rotate(0,285.5,195.5)"/><path d="M 278 293v 15h 7.5a 7.5 7.5, 0, 0, 0, 0 -15" transform="rotate(-90,285.5,300.5)"/><path d="M 278 308v 15h 7.5a 7.5 7.5, 0, 0, 0, 0 -15" transform="rotate(90,285.5,315.5)"/><path d="M 278 338v 15h 15v -7.5a 7.5 7.5, 0, 0, 0, -7.5 -7.5" transform="rotate(0,285.5,345.5)"/><path d="M 278 353v 15h 15v -7.5a 7.5 7.5, 0, 0, 0, -7.5 -7.5" transform="rotate(180,285.5,360.5)"/><path d="M 278 413v 15h 15v -7.5a 7.5 7.5, 0, 0, 0, -7.5 -7.5" transform="rotate(-90,285.5,420.5)"/><rect x="278" y="428" width="15" height="15" transform="rotate(0,285.5,435.5)"/><rect x="278" y="443" width="15" height="15" transform="rotate(0,285.5,450.5)"/><rect x="278" y="458" width="15" height="15" transform="rotate(0,285.5,465.5)"/><path d="M 293 38v 15h 7.5a 7.5 7.5, 0, 0, 0, 0 -15" transform="rotate(180,300.5,45.5)"/><path d="M 293 68v 15h 15v -7.5a 7.5 7.5, 0, 0, 0, -7.5 -7.5" transform="rotate(0,300.5,75.5)"/><rect x="293" y="83" width="15" height="15" transform="rotate(0,300.5,90.5)"/><rect x="293" y="98" width="15" height="15" transform="rotate(0,300.5,105.5)"/><path d="M 293 113v 15h 15v -7.5a 7.5 7.5, 0, 0, 0, -7.5 -7.5" transform="rotate(90,300.5,120.5)"/><circle cx="300.5" cy="150.5" r="7.5" transform="rotate(0,300.5,150.5)"/><path d="M 293 173v 15h 7.5a 7.5 7.5, 0, 0, 0, 0 -15" transform="rotate(-90,300.5,180.5)"/><path d="M 293 188v 15h 15v -7.5a 7.5 7.5, 0, 0, 0, -7.5 -7.5" transform="rotate(90,300.5,195.5)"/><path d="M 293 323v 15h 7.5a 7.5 7.5, 0, 0, 0, 0 -15" transform="rotate(180,300.5,330.5)"/><rect x="293" y="353" width="15" height="15" transform="rotate(0,300.5,360.5)"/><rect x="293" y="368" width="15" height="15" transform="rotate(0,300.5,375.5)"/><rect x="293" y="383" width="15" height="15" transform="rotate(0,300.5,390.5)"/><rect x="293" y="398" width="15" height="15" transform="rotate(0,300.5,405.5)"/><path d="M 293 413v 15h 15v -7.5a 7.5 7.5, 0, 0, 0, -7.5 -7.5" transform="rotate(90,300.5,420.5)"/><rect x="293" y="443" width="15" height="15" transform="rotate(0,300.5,450.5)"/><rect x="293" y="458" width="15" height="15" transform="rotate(0,300.5,465.5)"/><rect x="308" y="38" width="15" height="15" transform="rotate(0,315.5,45.5)"/><path d="M 308 53v 15h 7.5a 7.5 7.5, 0, 0, 0, 0 -15" transform="rotate(90,315.5,60.5)"/><path d="M 308 83v 15h 7.5a 7.5 7.5, 0, 0, 0, 0 -15" transform="rotate(0,315.5,90.5)"/><circle cx="315.5" cy="135.5" r="7.5" transform="rotate(0,315.5,135.5)"/><circle cx="315.5" cy="210.5" r="7.5" transform="rotate(0,315.5,210.5)"/><rect x="308" y="323" width="15" height="15" transform="rotate(0,315.5,330.5)"/><path d="M 308 353v 15h 15v -7.5a 7.5 7.5, 0, 0, 0, -7.5 -7.5" transform="rotate(0,315.5,360.5)"/><rect x="308" y="368" width="15" height="15" transform="rotate(0,315.5,375.5)"/><path d="M 308 383v 15h 15v -7.5a 7.5 7.5, 0, 0, 0, -7.5 -7.5" transform="rotate(90,315.5,390.5)"/><rect x="308" y="443" width="15" height="15" transform="rotate(0,315.5,450.5)"/><rect x="308" y="458" width="15" height="15" transform="rotate(0,315.5,465.5)"/><rect x="323" y="38" width="15" height="15" transform="rotate(0,330.5,45.5)"/><path d="M 323 68v 15h 7.5a 7.5 7.5, 0, 0, 0, 0 -15" transform="rotate(180,330.5,75.5)"/><circle cx="330.5" cy="105.5" r="7.5" transform="rotate(0,330.5,105.5)"/><path d="M 323 143v 15h 7.5a 7.5 7.5, 0, 0, 0, 0 -15" transform="rotate(180,330.5,150.5)"/><path d="M 323 323v 15h 15v -7.5a 7.5 7.5, 0, 0, 0, -7.5 -7.5" transform="rotate(0,330.5,330.5)"/><path d="M 323 338v 15h 15v -7.5a 7.5 7.5, 0, 0, 0, -7.5 -7.5" transform="rotate(180,330.5,345.5)"/><rect x="323" y="368" width="15" height="15" transform="rotate(0,330.5,375.5)"/><circle cx="330.5" cy="420.5" r="7.5" transform="rotate(0,330.5,420.5)"/><path d="M 323 443v 15h 15v -7.5a 7.5 7.5, 0, 0, 0, -7.5 -7.5" transform="rotate(0,330.5,450.5)"/><rect x="323" y="458" width="15" height="15" transform="rotate(0,330.5,465.5)"/><path d="M 338 38v 15h 7.5a 7.5 7.5, 0, 0, 0, 0 -15" transform="rotate(0,345.5,45.5)"/><path d="M 338 68v 15h 7.5a 7.5 7.5, 0, 0, 0, 0 -15" transform="rotate(0,345.5,75.5)"/><path d="M 338 128v 15h 7.5a 7.5 7.5, 0, 0, 0, 0 -15" transform="rotate(-90,345.5,135.5)"/><rect x="338" y="143" width="15" height="15" transform="rotate(0,345.5,150.5)"/><path d="M 338 158v 15h 15v -7.5a 7.5 7.5, 0, 0, 0, -7.5 -7.5" transform="rotate(180,345.5,165.5)"/><circle cx="345.5" cy="195.5" r="7.5" transform="rotate(0,345.5,195.5)"/><path d="M 338 293v 15h 7.5a 7.5 7.5, 0, 0, 0, 0 -15" transform="rotate(-90,345.5,300.5)"/><path d="M 338 308v 15h 7.5a 7.5 7.5, 0, 0, 0, 0 -15" transform="rotate(90,345.5,315.5)"/><rect x="338" y="338" width="15" height="15" transform="rotate(0,345.5,345.5)"/><rect x="338" y="353" width="15" height="15" transform="rotate(0,345.5,360.5)"/><rect x="338" y="368" width="15" height="15" transform="rotate(0,345.5,375.5)"/><rect x="338" y="383" width="15" height="15" transform="rotate(0,345.5,390.5)"/><path d="M 338 398v 15h 15v -7.5a 7.5 7.5, 0, 0, 0, -7.5 -7.5" transform="rotate(180,345.5,405.5)"/><path d="M 338 428v 15h 7.5a 7.5 7.5, 0, 0, 0, 0 -15" transform="rotate(180,345.5,435.5)"/><path d="M 338 458v 15h 7.5a 7.5 7.5, 0, 0, 0, 0 -15" transform="rotate(0,345.5,465.5)"/><rect x="353" y="158" width="15" height="15" transform="rotate(0,360.5,165.5)"/><path d="M 353 173v 15h 7.5a 7.5 7.5, 0, 0, 0, 0 -15" transform="rotate(90,360.5,180.5)"/><path d="M 353 203v 15h 7.5a 7.5 7.5, 0, 0, 0, 0 -15" transform="rotate(180,360.5,210.5)"/><path d="M 353 323v 15h 15v -7.5a 7.5 7.5, 0, 0, 0, -7.5 -7.5" transform="rotate(-90,360.5,330.5)"/><rect x="353" y="338" width="15" height="15" transform="rotate(0,360.5,345.5)"/><rect x="353" y="398" width="15" height="15" transform="rotate(0,360.5,405.5)"/><rect x="353" y="413" width="15" height="15" transform="rotate(0,360.5,420.5)"/><path d="M 353 428v 15h 15v -7.5a 7.5 7.5, 0, 0, 0, -7.5 -7.5" transform="rotate(90,360.5,435.5)"/><path d="M 368 158v 15h 7.5a 7.5 7.5, 0, 0, 0, 0 -15" transform="rotate(0,375.5,165.5)"/><path d="M 368 203v 15h 15v -7.5a 7.5 7.5, 0, 0, 0, -7.5 -7.5" transform="rotate(0,375.5,210.5)"/><rect x="368" y="218" width="15" height="15" transform="rotate(0,375.5,225.5)"/><path d="M 368 233v 15h 15v -7.5a 7.5 7.5, 0, 0, 0, -7.5 -7.5" transform="rotate(180,375.5,240.5)"/><path d="M 368 263v 15h 7.5a 7.5 7.5, 0, 0, 0, 0 -15" transform="rotate(180,375.5,270.5)"/><path d="M 368 323v 15h 15v -7.5a 7.5 7.5, 0, 0, 0, -7.5 -7.5" transform="rotate(0,375.5,330.5)"/><rect x="368" y="338" width="15" height="15" transform="rotate(0,375.5,345.5)"/><circle cx="375.5" cy="375.5" r="7.5" transform="rotate(0,375.5,375.5)"/><rect x="368" y="398" width="15" height="15" transform="rotate(0,375.5,405.5)"/><path d="M 368 413v 15h 15v -7.5a 7.5 7.5, 0, 0, 0, -7.5 -7.5" transform="rotate(90,375.5,420.5)"/><path d="M 383 173v 15h 7.5a 7.5 7.5, 0, 0, 0, 0 -15" transform="rotate(-90,390.5,180.5)"/><path d="M 383 188v 15h 15v -7.5a 7.5 7.5, 0, 0, 0, -7.5 -7.5" transform="rotate(180,390.5,195.5)"/><path d="M 383 218v 15h 15v -7.5a 7.5 7.5, 0, 0, 0, -7.5 -7.5" transform="rotate(0,390.5,225.5)"/><path d="M 383 233v 15h 15v -7.5a 7.5 7.5, 0, 0, 0, -7.5 -7.5" transform="rotate(90,390.5,240.5)"/><rect x="383" y="263" width="15" height="15" transform="rotate(0,390.5,270.5)"/><path d="M 383 278v 15h 15v -7.5a 7.5 7.5, 0, 0, 0, -7.5 -7.5" transform="rotate(180,390.5,285.5)"/><rect x="383" y="338" width="15" height="15" transform="rotate(0,390.5,345.5)"/><rect x="383" y="398" width="15" height="15" transform="rotate(0,390.5,405.5)"/><path d="M 383 443v 15h 7.5a 7.5 7.5, 0, 0, 0, 0 -15" transform="rotate(-90,390.5,450.5)"/><path d="M 383 458v 15h 15v -7.5a 7.5 7.5, 0, 0, 0, -7.5 -7.5" transform="rotate(180,390.5,465.5)"/><rect x="398" y="188" width="15" height="15" transform="rotate(0,405.5,195.5)"/><path d="M 398 203v 15h 7.5a 7.5 7.5, 0, 0, 0, 0 -15" transform="rotate(90,405.5,210.5)"/><path d="M 398 248v 15h 15v -7.5a 7.5 7.5, 0, 0, 0, -7.5 -7.5" transform="rotate(-90,405.5,255.5)"/><rect x="398" y="263" width="15" height="15" transform="rotate(0,405.5,270.5)"/><path d="M 398 278v 15h 15v -7.5a 7.5 7.5, 0, 0, 0, -7.5 -7.5" transform="rotate(90,405.5,285.5)"/><path d="M 398 308v 15h 7.5a 7.5 7.5, 0, 0, 0, 0 -15" transform="rotate(-90,405.5,315.5)"/><rect x="398" y="323" width="15" height="15" transform="rotate(0,405.5,330.5)"/><rect x="398" y="338" width="15" height="15" transform="rotate(0,405.5,345.5)"/><rect x="398" y="353" width="15" height="15" transform="rotate(0,405.5,360.5)"/><rect x="398" y="368" width="15" height="15" transform="rotate(0,405.5,375.5)"/><rect x="398" y="383" width="15" height="15" transform="rotate(0,405.5,390.5)"/><path d="M 398 398v 15h 15v -7.5a 7.5 7.5, 0, 0, 0, -7.5 -7.5" transform="rotate(90,405.5,405.5)"/><path d="M 398 458v 15h 7.5a 7.5 7.5, 0, 0, 0, 0 -15" transform="rotate(0,405.5,465.5)"/><path d="M 413 188v 15h 7.5a 7.5 7.5, 0, 0, 0, 0 -15" transform="rotate(0,420.5,195.5)"/><path d="M 413 233v 15h 15v -7.5a 7.5 7.5, 0, 0, 0, -7.5 -7.5" transform="rotate(-90,420.5,240.5)"/><rect x="413" y="248" width="15" height="15" transform="rotate(0,420.5,255.5)"/><circle cx="420.5" cy="300.5" r="7.5" transform="rotate(0,420.5,300.5)"/><path d="M 413 323v 15h 15v -7.5a 7.5 7.5, 0, 0, 0, -7.5 -7.5" transform="rotate(0,420.5,330.5)"/><path d="M 413 338v 15h 15v -7.5a 7.5 7.5, 0, 0, 0, -7.5 -7.5" transform="rotate(90,420.5,345.5)"/><path d="M 413 383v 15h 7.5a 7.5 7.5, 0, 0, 0, 0 -15" transform="rotate(0,420.5,390.5)"/><path d="M 413 428v 15h 7.5a 7.5 7.5, 0, 0, 0, 0 -15" transform="rotate(-90,420.5,435.5)"/><path d="M 413 443v 15h 15v -7.5a 7.5 7.5, 0, 0, 0, -7.5 -7.5" transform="rotate(180,420.5,450.5)"/><path d="M 428 173v 15h 7.5a 7.5 7.5, 0, 0, 0, 0 -15" transform="rotate(180,435.5,180.5)"/><path d="M 428 203v 15h 15v -7.5a 7.5 7.5, 0, 0, 0, -7.5 -7.5" transform="rotate(-90,435.5,210.5)"/><rect x="428" y="218" width="15" height="15" transform="rotate(0,435.5,225.5)"/><rect x="428" y="233" width="15" height="15" transform="rotate(0,435.5,240.5)"/><rect x="428" y="248" width="15" height="15" transform="rotate(0,435.5,255.5)"/><rect x="428" y="263" width="15" height="15" transform="rotate(0,435.5,270.5)"/><path d="M 428 278v 15h 7.5a 7.5 7.5, 0, 0, 0, 0 -15" transform="rotate(90,435.5,285.5)"/><path d="M 428 308v 15h 7.5a 7.5 7.5, 0, 0, 0, 0 -15" transform="rotate(180,435.5,315.5)"/><circle cx="435.5" cy="375.5" r="7.5" transform="rotate(0,435.5,375.5)"/><path d="M 428 398v 15h 7.5a 7.5 7.5, 0, 0, 0, 0 -15" transform="rotate(180,435.5,405.5)"/><path d="M 428 443v 15h 7.5a 7.5 7.5, 0, 0, 0, 0 -15" transform="rotate(0,435.5,450.5)"/><path d="M 443 158v 15h 7.5a 7.5 7.5, 0, 0, 0, 0 -15" transform="rotate(-90,450.5,165.5)"/><rect x="443" y="173" width="15" height="15" transform="rotate(0,450.5,180.5)"/><rect x="443" y="188" width="15" height="15" transform="rotate(0,450.5,195.5)"/><rect x="443" y="203" width="15" height="15" transform="rotate(0,450.5,210.5)"/><rect x="443" y="218" width="15" height="15" transform="rotate(0,450.5,225.5)"/><rect x="443" y="233" width="15" height="15" transform="rotate(0,450.5,240.5)"/><rect x="443" y="248" width="15" height="15" transform="rotate(0,450.5,255.5)"/><rect x="443" y="308" width="15" height="15" transform="rotate(0,450.5,315.5)"/><path d="M 443 323v 15h 7.5a 7.5 7.5, 0, 0, 0, 0 -15" transform="rotate(90,450.5,330.5)"/><rect x="443" y="398" width="15" height="15" transform="rotate(0,450.5,405.5)"/><rect x="443" y="413" width="15" height="15" transform="rotate(0,450.5,420.5)"/><path d="M 443 428v 15h 15v -7.5a 7.5 7.5, 0, 0, 0, -7.5 -7.5" transform="rotate(180,450.5,435.5)"/><circle cx="450.5" cy="465.5" r="7.5" transform="rotate(0,450.5,465.5)"/><path d="M 458 173v 15h 7.5a 7.5 7.5, 0, 0, 0, 0 -15" transform="rotate(0,465.5,180.5)"/><path d="M 458 218v 15h 15v -7.5a 7.5 7.5, 0, 0, 0, -7.5 -7.5" transform="rotate(0,465.5,225.5)"/><rect x="458" y="233" width="15" height="15" transform="rotate(0,465.5,240.5)"/><rect x="458" y="248" width="15" height="15" transform="rotate(0,465.5,255.5)"/><rect x="458" y="263" width="15" height="15" transform="rotate(0,465.5,270.5)"/><rect x="458" y="278" width="15" height="15" transform="rotate(0,465.5,285.5)"/><rect x="458" y="293" width="15" height="15" transform="rotate(0,465.5,300.5)"/><path d="M 458 308v 15h 15v -7.5a 7.5 7.5, 0, 0, 0, -7.5 -7.5" transform="rotate(90,465.5,315.5)"/><circle cx="465.5" cy="360.5" r="7.5" transform="rotate(0,465.5,360.5)"/><path d="M 458 383v 15h 7.5a 7.5 7.5, 0, 0, 0, 0 -15" transform="rotate(-90,465.5,390.5)"/><path d="M 458 398v 15h 15v -7.5a 7.5 7.5, 0, 0, 0, -7.5 -7.5" transform="rotate(90,465.5,405.5)"/><path d="M 458 428v 15h 7.5a 7.5 7.5, 0, 0, 0, 0 -15" transform="rotate(0,465.5,435.5)"/></clipPath><clipPath id="clip-path-corners-square-color-0-0"><path clip-rule="evenodd" d="M 38 75.5v 30a 37.5 37.5, 0, 0, 0, 37.5 37.5h 30a 37.5 37.5, 0, 0, 0, 37.5 -37.5v -30a 37.5 37.5, 0, 0, 0, -37.5 -37.5h -30a 37.5 37.5, 0, 0, 0, -37.5 37.5M 75.5 53h 30a 22.5 22.5, 0, 0, 1, 22.5 22.5v 30a 22.5 22.5, 0, 0, 1, -22.5 22.5h -30a 22.5 22.5, 0, 0, 1, -22.5 -22.5v -30a 22.5 22.5, 0, 0, 1, 22.5 -22.5" transform="rotate(0,90.5,90.5)"/></clipPath><clipPath id="clip-path-corners-dot-color-0-0"><path d="M 68 68v 15h 15v -7.5a 7.5 7.5, 0, 0, 0, -7.5 -7.5" transform="rotate(-90,75.5,75.5)"/><rect x="68" y="83" width="15" height="15" transform="rotate(0,75.5,90.5)"/><path d="M 68 98v 15h 15v -7.5a 7.5 7.5, 0, 0, 0, -7.5 -7.5" transform="rotate(180,75.5,105.5)"/><rect x="83" y="68" width="15" height="15" transform="rotate(0,90.5,75.5)"/><rect x="83" y="83" width="15" height="15" transform="rotate(0,90.5,90.5)"/><rect x="83" y="98" width="15" height="15" transform="rotate(0,90.5,105.5)"/><path d="M 98 68v 15h 15v -7.5a 7.5 7.5, 0, 0, 0, -7.5 -7.5" transform="rotate(0,105.5,75.5)"/><rect x="98" y="83" width="15" height="15" transform="rotate(0,105.5,90.5)"/><path d="M 98 98v 15h 15v -7.5a 7.5 7.5, 0, 0, 0, -7.5 -7.5" transform="rotate(90,105.5,105.5)"/></clipPath><clipPath id="clip-path-corners-square-color-1-0"><path clip-rule="evenodd" d="M 368 75.5v 30a 37.5 37.5, 0, 0, 0, 37.5 37.5h 30a 37.5 37.5, 0, 0, 0, 37.5 -37.5v -30a 37.5 37.5, 0, 0, 0, -37.5 -37.5h -30a 37.5 37.5, 0, 0, 0, -37.5 37.5M 405.5 53h 30a 22.5 22.5, 0, 0, 1, 22.5 22.5v 30a 22.5 22.5, 0, 0, 1, -22.5 22.5h -30a 22.5 22.5, 0, 0, 1, -22.5 -22.5v -30a 22.5 22.5, 0, 0, 1, 22.5 -22.5" transform="rotate(90,420.5,90.5)"/></clipPath><clipPath id="clip-path-corners-dot-color-1-0"><path d="M 398 68v 15h 15v -7.5a 7.5 7.5, 0, 0, 0, -7.5 -7.5" transform="rotate(-90,405.5,75.5)"/><rect x="398" y="83" width="15" height="15" transform="rotate(0,405.5,90.5)"/><path d="M 398 98v 15h 15v -7.5a 7.5 7.5, 0, 0, 0, -7.5 -7.5" transform="rotate(180,405.5,105.5)"/><rect x="413" y="68" width="15" height="15" transform="rotate(0,420.5,75.5)"/><rect x="413" y="83" width="15" height="15" transform="rotate(0,420.5,90.5)"/><rect x="413" y="98" width="15" height="15" transform="rotate(0,420.5,105.5)"/><path d="M 428 68v 15h 15v -7.5a 7.5 7.5, 0, 0, 0, -7.5 -7.5" transform="rotate(0,435.5,75.5)"/><rect x="428" y="83" width="15" height="15" transform="rotate(0,435.5,90.5)"/><path d="M 428 98v 15h 15v -7.5a 7.5 7.5, 0, 0, 0, -7.5 -7.5" transform="rotate(90,435.5,105.5)"/></clipPath><clipPath id="clip-path-corners-square-color-0-1"><path clip-rule="evenodd" d="M 38 405.5v 30a 37.5 37.5, 0, 0, 0, 37.5 37.5h 30a 37.5 37.5, 0, 0, 0, 37.5 -37.5v -30a 37.5 37.5, 0, 0, 0, -37.5 -37.5h -30a 37.5 37.5, 0, 0, 0, -37.5 37.5M 75.5 383h 30a 22.5 22.5, 0, 0, 1, 22.5 22.5v 30a 22.5 22.5, 0, 0, 1, -22.5 22.5h -30a 22.5 22.5, 0, 0, 1, -22.5 -22.5v -30a 22.5 22.5, 0, 0, 1, 22.5 -22.5" transform="rotate(-90,90.5,420.5)"/></clipPath><clipPath id="clip-path-corners-dot-color-0-1"><path d="M 68 398v 15h 15v -7.5a 7.5 7.5, 0, 0, 0, -7.5 -7.5" transform="rotate(-90,75.5,405.5)"/><rect x="68" y="413" width="15" height="15" transform="rotate(0,75.5,420.5)"/><path d="M 68 428v 15h 15v -7.5a 7.5 7.5, 0, 0, 0, -7.5 -7.5" transform="rotate(180,75.5,435.5)"/><rect x="83" y="398" width="15" height="15" transform="rotate(0,90.5,405.5)"/><rect x="83" y="413" width="15" height="15" transform="rotate(0,90.5,420.5)"/><rect x="83" y="428" width="15" height="15" transform="rotate(0,90.5,435.5)"/><path d="M 98 398v 15h 15v -7.5a 7.5 7.5, 0, 0, 0, -7.5 -7.5" transform="rotate(0,105.5,405.5)"/><rect x="98" y="413" width="15" height="15" transform="rotate(0,105.5,420.5)"/><path d="M 98 428v 15h 15v -7.5a 7.5 7.5, 0, 0, 0, -7.5 -7.5" transform="rotate(90,105.5,435.5)"/></clipPath></defs><rect x="0" y="0" height="512" width="512" clip-path="url('#clip-path-background-color')" fill="#ffffff"/><rect x="38" y="38" height="435" width="435" clip-path="url('#clip-path-dot-color')" fill="#e8e7ee"/><rect x="38" y="38" height="105" width="105" clip-path="url('#clip-path-corners-square-color-0-0')" fill="#e8e7ee"/><rect x="68" y="68" height="45" width="45" clip-path="url('#clip-path-corners-dot-color-0-0')" fill="#e8e7ee"/><rect x="368" y="38" height="105" width="105" clip-path="url('#clip-path-corners-square-color-1-0')" fill="#e8e7ee"/><rect x="398" y="68" height="45" width="45" clip-path="url('#clip-path-corners-dot-color-1-0')" fill="#e8e7ee"/><rect x="38" y="368" height="105" width="105" clip-path="url('#clip-path-corners-square-color-0-1')" fill="#e8e7ee"/><rect x="68" y="398" height="45" width="45" clip-path="url('#clip-path-corners-dot-color-0-1')" fill="#e8e7ee"/><svg xmlns="http://www.w3.org/2000/svg" viewBox="0 0 374.6 100.501" height="60px" width="225px" x="143" y="225.5"><g style="stroke:#eae8e8;stroke-width:0.25mm;fill:#eae8e8" fill="#eae8e8" stroke-width="0.25mm" stroke="#eae8e8" font-size="9pt" fill-rule="evenodd" stroke-linecap="round" id="svgGroup"><path d="M 212.5 77.901 L 227.4 8.601 A 23.311 23.311 0 0 0 220.906 12.473 A 20.668 20.668 0 0 0 217.05 16.851 A 21.737 21.737 0 0 0 213.893 24.856 A 29.874 29.874 0 0 0 213.4 30.401 Q 213.4 34.101 214.1 35.551 A 50.196 50.196 0 0 1 214.264 35.894 Q 214.693 36.799 214.779 37.092 A 0.434 0.434 0 0 1 214.8 37.201 A 20.861 20.861 0 0 1 211.98 37.023 Q 210.526 36.824 209.343 36.402 A 8.223 8.223 0 0 1 206.75 34.951 A 6.745 6.745 0 0 1 204.826 32.136 Q 204.396 31.002 204.221 29.583 A 17.01 17.01 0 0 1 204.1 27.501 A 16.53 16.53 0 0 1 206.05 19.831 Q 207.3 17.414 209.35 15.051 Q 214.6 9.001 222.8 5.251 A 41.466 41.466 0 0 1 233.05 2.028 A 36.323 36.323 0 0 1 239.2 1.501 Q 240.6 1.501 243.2 1.701 L 227.8 73.501 A 31.425 31.425 0 0 1 231.721 74.77 A 37.566 37.566 0 0 1 233.55 75.551 A 78.813 78.813 0 0 1 235.925 76.69 Q 236.996 77.224 238.19 77.852 A 168.321 168.321 0 0 1 240.7 79.201 Q 245.379 81.72 249.073 83.384 A 72.699 72.699 0 0 0 251.8 84.551 Q 256.4 86.401 261.4 86.401 A 22.322 22.322 0 0 0 268.254 85.365 A 20.79 20.79 0 0 0 269.8 84.801 Q 269.23 90.005 267.669 93.633 A 17.445 17.445 0 0 1 266.25 96.301 A 11.532 11.532 0 0 1 264.449 98.47 A 7.225 7.225 0 0 1 259.4 100.501 Q 254.9 100.501 250.55 97.951 A 58.065 58.065 0 0 1 247.602 96.088 Q 244.598 94.074 240.774 91.1 A 196.514 196.514 0 0 1 239.5 90.101 Q 234.56 86.148 231.035 83.709 A 82.831 82.831 0 0 0 230.95 83.651 Q 227.4 81.201 223.25 79.501 Q 219.1 77.801 214.8 77.801 A 37.546 37.546 0 0 0 214.094 77.807 Q 213.333 77.821 212.803 77.869 A 8.66 8.66 0 0 0 212.5 77.901 Z M 15.524 76.817 A 30.759 30.759 0 0 0 21.1 77.301 A 35.861 35.861 0 0 0 23.639 77.212 A 29.923 29.923 0 0 0 34.75 74.301 A 28.935 28.935 0 0 0 36.293 73.491 A 23.962 23.962 0 0 0 44.45 66.101 Q 48 60.901 48 54.501 A 24.925 24.925 0 0 0 47.994 53.916 A 21.667 21.667 0 0 0 46.25 45.751 A 36.126 36.126 0 0 0 45.211 43.548 A 30.345 30.345 0 0 0 42.05 38.601 A 67.321 67.321 0 0 0 41.931 38.45 Q 39.504 35.397 35.6 31.201 Q 30.7 25.801 28.4 22.351 Q 26.1 18.901 26.1 14.901 A 13.495 13.495 0 0 1 26.24 12.923 A 9.888 9.888 0 0 1 28.65 7.651 A 8.319 8.319 0 0 1 31.821 5.406 A 9.136 9.136 0 0 1 35.2 4.801 Q 38.5 4.801 40.4 6.701 A 6.237 6.237 0 0 1 42.035 9.589 A 8.715 8.715 0 0 1 42.3 11.801 Q 42.3 14.301 41.2 16.601 A 11.329 11.329 0 0 1 40.913 17.162 A 9.528 9.528 0 0 1 38.2 20.301 A 9.551 9.551 0 0 0 38.369 20.521 Q 39.498 21.953 40.971 22.673 A 7.483 7.483 0 0 0 44.3 23.401 A 8.407 8.407 0 0 0 44.978 23.374 A 6.663 6.663 0 0 0 49.8 20.801 A 8.457 8.457 0 0 0 50.116 20.384 Q 51.176 18.891 51.607 16.919 A 13.689 13.689 0 0 0 51.9 14.001 A 15.836 15.836 0 0 0 51.842 12.629 A 12.109 12.109 0 0 0 47.05 3.801 A 15.536 15.536 0 0 0 44.965 2.424 Q 42.526 1.079 39.448 0.481 A 28.025 28.025 0 0 0 34.1 0.001 A 31.431 31.431 0 0 0 30.58 0.193 A 25.24 25.24 0 0 0 22.6 2.401 A 23.529 23.529 0 0 0 20.474 3.534 A 19.033 19.033 0 0 0 14.6 8.951 Q 11.7 13.101 11.7 18.301 Q 11.7 23.601 14.45 28.051 A 53.85 53.85 0 0 0 16.654 31.317 Q 19.057 34.632 22.6 38.701 A 158.468 158.468 0 0 1 22.83 38.966 Q 26.251 42.931 28.521 46.1 A 50.286 50.286 0 0 1 30.4 48.901 Q 33 53.101 33 57.801 A 16.067 16.067 0 0 1 32.965 58.878 A 12.082 12.082 0 0 1 29.55 66.751 A 11.343 11.343 0 0 1 25.224 69.572 A 12.954 12.954 0 0 1 20.8 70.301 Q 16.5 70.301 13.9 67.701 A 8.527 8.527 0 0 1 11.681 63.844 A 11.537 11.537 0 0 1 11.3 60.801 A 12.841 12.841 0 0 1 11.394 59.226 A 9.055 9.055 0 0 1 14.4 53.351 Q 16.386 51.589 19.234 50.956 A 15.965 15.965 0 0 1 22.7 50.601 Q 22.1 47.501 19.7 45.751 A 8.794 8.794 0 0 0 16.605 44.324 A 11.611 11.611 0 0 0 13.8 44.001 Q 10 44.001 6.85 46.101 A 14.279 14.279 0 0 0 5.009 47.56 A 15.367 15.367 0 0 0 1.85 51.801 A 16.23 16.23 0 0 0 0.76 54.491 A 18.113 18.113 0 0 0 0 59.801 Q 0 65.001 2.6 68.951 A 15.92 15.92 0 0 0 5.535 72.281 A 18.83 18.83 0 0 0 10 75.101 A 23.36 23.36 0 0 0 15.524 76.817 Z M 344.2 59.501 L 345 55.601 A 14.956 14.956 0 0 0 345.344 53.358 A 18.404 18.404 0 0 0 345.4 51.901 A 9.406 9.406 0 0 0 345.255 50.164 Q 344.676 47.101 341.8 47.101 A 6.402 6.402 0 0 0 339.953 47.385 A 8.885 8.885 0 0 0 338.45 48.001 A 15.623 15.623 0 0 0 337.122 48.777 Q 336.498 49.18 335.817 49.686 A 35.491 35.491 0 0 0 334.4 50.801 L 329.2 75.501 L 314.8 75.501 L 329.3 7.501 L 344.1 5.501 L 336.6 40.701 L 355.9 25.501 L 365.8 25.501 L 345.8 39.401 A 11.767 11.767 0 0 1 347.792 39.057 A 14.773 14.773 0 0 1 349.1 39.001 Q 354.5 39.001 357.3 42.301 A 11.602 11.602 0 0 1 359.866 47.903 A 16.067 16.067 0 0 1 360.1 50.701 Q 360.1 52.801 359.7 54.501 L 358.6 59.501 A 15.687 15.687 0 0 0 358.277 60.897 Q 358.1 61.869 358.1 62.701 A 5.042 5.042 0 0 0 358.301 64.187 Q 358.805 65.821 360.581 66.249 A 6.078 6.078 0 0 0 362 66.401 A 6.758 6.758 0 0 0 364.279 66.032 A 5.773 5.773 0 0 0 366.8 64.251 Q 368.6 62.101 370.4 57.601 L 374.6 57.601 A 50.338 50.338 0 0 1 371.601 64.809 Q 365.732 76.101 356.2 76.101 A 20.796 20.796 0 0 1 352.618 75.812 Q 350.696 75.476 349.174 74.746 A 9.606 9.606 0 0 1 346.8 73.151 A 9.552 9.552 0 0 1 344.016 68.333 Q 343.6 66.683 343.6 64.701 A 22.187 22.187 0 0 1 343.79 61.874 A 28.971 28.971 0 0 1 344.2 59.501 Z M 71 43.401 L 64.2 75.501 L 49.8 75.501 L 60.4 25.501 L 74.8 25.501 L 73.7 30.701 A 18.22 18.22 0 0 1 77.866 27.18 A 14.331 14.331 0 0 1 85.4 25.101 A 15.036 15.036 0 0 1 88.795 25.462 Q 91.513 26.092 93.41 27.817 A 9.662 9.662 0 0 1 93.5 27.901 A 8.761 8.761 0 0 1 95.83 31.66 Q 96.5 33.706 96.5 36.401 Q 96.5 39.21 95.843 42.629 A 46.208 46.208 0 0 1 95.8 42.851 Q 95.1 46.401 93.8 51.501 A 175.423 175.423 0 0 0 92.432 57.181 A 160.665 160.665 0 0 0 92.35 57.551 A 40.513 40.513 0 0 0 92.022 59.192 Q 91.746 60.749 91.707 61.851 A 9.904 9.904 0 0 0 91.7 62.201 A 7.151 7.151 0 0 0 91.795 63.403 Q 91.992 64.557 92.6 65.301 A 2.646 2.646 0 0 0 93.683 66.072 Q 94.135 66.254 94.706 66.335 A 7.079 7.079 0 0 0 95.7 66.401 A 6.758 6.758 0 0 0 97.979 66.032 A 5.773 5.773 0 0 0 100.5 64.251 Q 102.3 62.101 104.1 57.601 L 108.3 57.601 A 62.897 62.897 0 0 1 106.254 62.933 Q 103.951 68.149 101.269 70.969 A 13.496 13.496 0 0 1 99.75 72.351 A 19.501 19.501 0 0 1 95.596 74.847 A 14.682 14.682 0 0 1 89.7 76.101 A 18.094 18.094 0 0 1 86.365 75.814 Q 82.754 75.136 80.75 72.851 Q 77.9 69.601 77.9 64.801 A 21.173 21.173 0 0 1 78.01 62.711 Q 78.135 61.458 78.4 60.051 Q 78.9 57.401 79.45 54.901 Q 79.984 52.476 80.188 51.745 A 7.505 7.505 0 0 1 80.2 51.701 Q 81 48.201 81.7 44.801 A 46.699 46.699 0 0 0 82.07 42.803 Q 82.4 40.744 82.4 39.301 A 10.701 10.701 0 0 0 82.263 37.503 Q 81.713 34.294 78.962 34.203 A 4.913 4.913 0 0 0 78.8 34.201 Q 76.2 34.201 74.2 36.751 A 15.743 15.743 0 0 0 72.501 39.482 Q 71.827 40.842 71.29 42.469 A 28.812 28.812 0 0 0 71 43.401 Z M 285.5 43.401 L 278.7 75.501 L 264.3 75.501 L 274.9 25.501 L 289.3 25.501 L 288.2 30.701 A 18.22 18.22 0 0 1 292.366 27.18 A 14.331 14.331 0 0 1 299.9 25.101 A 15.036 15.036 0 0 1 303.295 25.462 Q 306.013 26.092 307.91 27.817 A 9.662 9.662 0 0 1 308 27.901 A 8.761 8.761 0 0 1 310.33 31.66 Q 311 33.706 311 36.401 Q 311 39.21 310.343 42.629 A 46.208 46.208 0 0 1 310.3 42.851 Q 309.6 46.401 308.3 51.501 A 175.423 175.423 0 0 0 306.932 57.181 A 160.665 160.665 0 0 0 306.85 57.551 A 40.513 40.513 0 0 0 306.522 59.192 Q 306.246 60.749 306.207 61.851 A 9.904 9.904 0 0 0 306.2 62.201 A 7.151 7.151 0 0 0 306.295 63.403 Q 306.492 64.557 307.1 65.301 A 2.646 2.646 0 0 0 308.183 66.072 Q 308.635 66.254 309.206 66.335 A 7.079 7.079 0 0 0 310.2 66.401 A 6.758 6.758 0 0 0 312.479 66.032 A 5.773 5.773 0 0 0 315 64.251 Q 316.8 62.101 318.6 57.601 L 322.8 57.601 A 62.897 62.897 0 0 1 320.754 62.933 Q 318.451 68.149 315.769 70.969 A 13.496 13.496 0 0 1 314.25 72.351 A 19.501 19.501 0 0 1 310.096 74.847 A 14.682 14.682 0 0 1 304.2 76.101 A 18.094 18.094 0 0 1 300.865 75.814 Q 297.254 75.136 295.25 72.851 Q 292.4 69.601 292.4 64.801 A 21.173 21.173 0 0 1 292.51 62.711 Q 292.635 61.458 292.9 60.051 Q 293.4 57.401 293.95 54.901 Q 294.484 52.476 294.688 51.745 A 7.505 7.505 0 0 1 294.7 51.701 Q 295.5 48.201 296.2 44.801 A 46.699 46.699 0 0 0 296.57 42.803 Q 296.9 40.744 296.9 39.301 A 10.701 10.701 0 0 0 296.763 37.503 Q 296.213 34.294 293.462 34.203 A 4.913 4.913 0 0 0 293.3 34.201 Q 290.7 34.201 288.7 36.751 A 15.743 15.743 0 0 0 287.001 39.482 Q 286.327 40.842 285.79 42.469 A 28.812 28.812 0 0 0 285.5 43.401 Z M 147.6 100.501 L 164.3 21.801 L 178.7 21.801 L 177.1 29.301 Q 182.1 25.001 188.8 25.001 A 13.669 13.669 0 0 1 192.788 25.554 A 10.592 10.592 0 0 1 197.7 28.701 Q 200.795 32.17 200.988 39.773 A 40.576 40.576 0 0 1 201 40.801 A 57.506 57.506 0 0 1 198.979 55.745 A 64.04 64.04 0 0 1 198.7 56.751 Q 196.4 64.801 190.9 70.451 A 18.384 18.384 0 0 1 179.912 75.867 A 25.597 25.597 0 0 1 176.4 76.101 Q 172.963 76.101 170.766 75.062 A 6.357 6.357 0 0 1 167.9 72.501 L 162.7 96.901 L 147.6 100.501 Z M 136.6 30.101 L 136.6 30.801 L 137.7 25.501 L 152.1 25.501 L 144.9 59.501 Q 144.5 61.001 144.5 62.701 A 6.512 6.512 0 0 0 144.697 64.376 Q 145.269 66.52 147.51 66.912 A 6.322 6.322 0 0 0 148.6 67.001 A 5.619 5.619 0 0 0 152.446 65.478 A 8.486 8.486 0 0 0 153.45 64.401 A 15.698 15.698 0 0 0 155.185 61.612 Q 155.871 60.221 156.41 58.555 A 28.82 28.82 0 0 0 156.7 57.601 L 160.9 57.601 Q 157.2 68.401 151.75 72.251 Q 146.3 76.101 140.8 76.101 Q 136.6 76.101 134.05 73.751 Q 131.71 71.594 131.096 67.626 A 17.113 17.113 0 0 1 131 66.901 A 30.712 30.712 0 0 1 127.532 71.023 A 24.943 24.943 0 0 1 124.55 73.551 A 13.547 13.547 0 0 1 118.035 75.995 A 17.382 17.382 0 0 1 116.1 76.101 A 13.692 13.692 0 0 1 111.024 75.186 A 12.609 12.609 0 0 1 106.6 72.201 Q 103.736 69.26 103.031 63.819 A 29.775 29.775 0 0 1 102.8 60.001 A 41.743 41.743 0 0 1 103.938 50.519 A 53.508 53.508 0 0 1 105.75 44.451 A 36.675 36.675 0 0 1 111.807 33.632 A 34.348 34.348 0 0 1 114.55 30.651 Q 120.4 25.001 128.5 25.001 A 19.255 19.255 0 0 1 130.641 25.111 Q 132.929 25.368 134.325 26.22 A 5.271 5.271 0 0 1 134.6 26.401 A 5.04 5.04 0 0 1 135.819 27.577 A 4.208 4.208 0 0 1 136.6 30.101 Z M 241.4 57.601 L 248.2 25.501 L 262.6 25.501 L 255.4 59.501 Q 255 61.001 255 62.701 Q 255 63.86 255.32 64.634 A 2.476 2.476 0 0 0 255.95 65.551 A 2.759 2.759 0 0 0 256.817 66.06 Q 257.619 66.367 258.828 66.397 A 10.79 10.79 0 0 0 259.1 66.401 A 6.923 6.923 0 0 0 262.899 65.243 A 10.064 10.064 0 0 0 264.5 63.951 A 13.046 13.046 0 0 0 267.276 59.896 A 16.871 16.871 0 0 0 268.1 57.601 L 272.3 57.601 A 49.254 49.254 0 0 1 270.053 63.126 Q 266.969 69.483 262.8 72.251 A 25.497 25.497 0 0 1 258.014 74.779 A 18.299 18.299 0 0 1 251.3 76.101 A 12.469 12.469 0 0 1 247.769 75.624 A 9.634 9.634 0 0 1 243.55 73.101 A 9.385 9.385 0 0 1 241.385 69.49 Q 240.882 68.02 240.702 66.221 A 21.244 21.244 0 0 1 240.6 64.101 Q 240.6 61.715 241.329 57.963 A 66.029 66.029 0 0 1 241.4 57.601 Z M 175.4 37.101 L 169.5 65.101 Q 170.3 67.401 173.3 67.401 A 8.952 8.952 0 0 0 180.119 64.315 A 13.549 13.549 0 0 0 181.25 62.901 A 28.031 28.031 0 0 0 184.524 56.592 A 35.896 35.896 0 0 0 185.85 52.151 A 58.493 58.493 0 0 0 186.982 45.75 A 45.108 45.108 0 0 0 187.3 40.501 A 20.603 20.603 0 0 0 187.125 37.68 Q 186.689 34.544 185.172 33.203 A 4.175 4.175 0 0 0 182.3 32.201 A 5.487 5.487 0 0 0 180.202 32.635 Q 179.431 32.952 178.65 33.501 A 10.624 10.624 0 0 0 176.612 35.397 A 14.007 14.007 0 0 0 175.4 37.101 Z M 130.9 57.601 L 135.7 35.001 A 3.6 3.6 0 0 0 135.31 33.395 A 5.189 5.189 0 0 0 134.7 32.451 A 3.156 3.156 0 0 0 133.073 31.391 Q 132.543 31.236 131.902 31.207 A 6.663 6.663 0 0 0 131.6 31.201 Q 128.166 31.201 125.321 34.629 A 17.036 17.036 0 0 0 124.4 35.851 A 32.611 32.611 0 0 0 121.243 41.683 A 43.367 43.367 0 0 0 119.4 47.051 Q 117.97 52.257 117.676 56.485 A 30.572 30.572 0 0 0 117.6 58.601 Q 117.6 63.334 118.9 64.841 A 2.401 2.401 0 0 0 119.05 65.001 Q 120.5 66.401 122.6 66.401 A 5.814 5.814 0 0 0 125.243 65.737 Q 126.076 65.317 126.904 64.629 A 12.146 12.146 0 0 0 127.55 64.051 A 10.833 10.833 0 0 0 129.913 60.643 A 15.414 15.414 0 0 0 130.9 57.601 Z M 254.492 19.268 A 7.792 7.792 0 0 0 258.1 20.101 A 9.433 9.433 0 0 0 258.113 20.101 A 7.787 7.787 0 0 0 263.75 17.801 A 9.076 9.076 0 0 0 263.859 17.692 A 7.527 7.527 0 0 0 266.1 12.201 A 9.208 9.208 0 0 0 266.1 12.098 A 7.695 7.695 0 0 0 263.75 6.551 A 9.397 9.397 0 0 0 263.677 6.478 A 7.693 7.693 0 0 0 258.1 4.201 A 9.171 9.171 0 0 0 257.946 4.202 A 7.525 7.525 0 0 0 252.5 6.551 A 9.359 9.359 0 0 0 252.491 6.56 A 7.787 7.787 0 0 0 250.2 12.201 A 9.402 9.402 0 0 0 250.201 12.303 A 7.609 7.609 0 0 0 252.5 17.801 A 7.931 7.931 0 0 0 254.492 19.268 Z"/></g></svg></svg>